<svg class="diagram-root" style="background: #f5f6f6" xmlns="http://www.w3.org/2000/svg" xmlns:xlink="http://www.w3.org/1999/xlink"><style>.diagram-root { font-family: "Helvetica Neue", sans-serif; font-size: 12px; } .t { overflow: visible; } .t-bg { y: 40; fill: #fff;   } .th { fill: #005aa0;   } .tht { fill: #fff; font-size: 14px;  } .tf { fill: #323c46; overflow: visible; } .tf.pk { fill: #005aa0; font-weight: bold; } .tf.fk { font-weight: bold; } .ty { fill: #adb1b5; font-weight: normal; text-anchor: end; } .r { fill: transparent; stroke: #c3c3c3; stroke-width: 1; } .l { stroke: 1; } .i { fill: #c2c7ce; stroke: #c2c7ce; } .i.ix { fill: #afb3b6; stroke: #000; } .fa { fill: transparent; overflow: visible; } .fa .bg.hover { fill: #f7f7f7; } .c { cy: 12; r: 4; stroke: #d2d2dc; fill: #d2d2dc; } .hr { fill: transparent; stroke: #323c46; stroke-opacity: 0.035; stroke-width: 13; } .dc { stroke: #fa5a3c; fill: #fa5a3c; } .x { stroke: white; stroke-width: 1; } .hl .th { fill: #1b9bff; } .hl .tht {  } .fhl .bg { fill: #e7f4ff; } .fhls .bg {  } .r.hl { stroke: #1b9bff; } .dim { opacity: 0.25; }</style><g class="drawing-wrapper" transform="translate(-13.714285714285715, 182.3333333333333) scale(1,1)"><g class="rs"><path d="M 184.6 215.29 m -1, 0 a 1,1 0 1,0 2,0 a 1,1 0 1,0 -2,0 M 184.6 215.29 m -0.5, 0 a 0.5,0.5 0 1,0 1,0 a 0.5,0.5 0 1,0 -1,0  M184.6 215.29 L184.6 215.29 196.6 215.29 M 184.6 221.29 m -1, 0 a 1,1 0 1,0 2,0 a 1,1 0 1,0 -2,0 M 184.6 221.29 m -0.5, 0 a 0.5,0.5 0 1,0 1,0 a 0.5,0.5 0 1,0 -1,0  M184.6 221.29 L184.6 221.29 191.6 215.29 184.6 209.29 M 184.6 209.29 m -1, 0 a 1,1 0 1,0 2,0 a 1,1 0 1,0 -2,0 M 184.6 209.29 m -0.5, 0 a 0.5,0.5 0 1,0 1,0 a 0.5,0.5 0 1,0 -1,0  M196.6 215.29 Q 227.92 215.29, 259.23 138.6 T 321.86 61.9 M 333.86 61.9 m -1, 0 a 1,1 0 1,0 2,0 a 1,1 0 1,0 -2,0 M 333.86 61.9 m -0.5, 0 a 0.5,0.5 0 1,0 1,0 a 0.5,0.5 0 1,0 -1,0  M333.86 61.9 L333.86 61.9 321.86 61.9 M327.86 67.9 L327.86 67.9 327.86 55.9" id="h1139284389" class="r"></path><path d="M 37.43 240.29 m -1, 0 a 1,1 0 1,0 2,0 a 1,1 0 1,0 -2,0 M 37.43 240.29 m -0.5, 0 a 0.5,0.5 0 1,0 1,0 a 0.5,0.5 0 1,0 -1,0  M37.43 240.29 L37.43 240.29 25.43 240.29 M 37.43 246.29 m -1, 0 a 1,1 0 1,0 2,0 a 1,1 0 1,0 -2,0 M 37.43 246.29 m -0.5, 0 a 0.5,0.5 0 1,0 1,0 a 0.5,0.5 0 1,0 -1,0  M37.43 246.29 L37.43 246.29 30.43 240.29 37.43 234.29 M 37.43 234.29 m -1, 0 a 1,1 0 1,0 2,0 a 1,1 0 1,0 -2,0 M 37.43 234.29 m -0.5, 0 a 0.5,0.5 0 1,0 1,0 a 0.5,0.5 0 1,0 -1,0  M25.43 240.29 C -27.322 240.29, -26.29 87, 23.71 87 M 35.71 87 m -1, 0 a 1,1 0 1,0 2,0 a 1,1 0 1,0 -2,0 M 35.71 87 m -0.5, 0 a 0.5,0.5 0 1,0 1,0 a 0.5,0.5 0 1,0 -1,0  M35.71 87 L35.71 87 23.71 87 M29.71 93 L29.71 93 29.71 81" id="h1607168654" class="r"></path><path d="M 37.67 -95.33000000000001 m -1, 0 a 1,1 0 1,0 2,0 a 1,1 0 1,0 -2,0 M 37.67 -95.33000000000001 m -0.5, 0 a 0.5,0.5 0 1,0 1,0 a 0.5,0.5 0 1,0 -1,0  M37.67 -95.33000000000001 L37.67 -95.33000000000001 25.67 -95.33000000000001 M 37.67 -89.33000000000001 m -1, 0 a 1,1 0 1,0 2,0 a 1,1 0 1,0 -2,0 M 37.67 -89.33000000000001 m -0.5, 0 a 0.5,0.5 0 1,0 1,0 a 0.5,0.5 0 1,0 -1,0  M37.67 -89.33000000000001 L37.67 -89.33000000000001 30.67 -95.33000000000001 37.67 -101.33000000000001 M 37.67 -101.33000000000001 m -1, 0 a 1,1 0 1,0 2,0 a 1,1 0 1,0 -2,0 M 37.67 -101.33000000000001 m -0.5, 0 a 0.5,0.5 0 1,0 1,0 a 0.5,0.5 0 1,0 -1,0  M25.67 -95.33000000000001 C -27.466 -95.33000000000001, -26.29 87, 23.71 87 M 35.71 87 m -1, 0 a 1,1 0 1,0 2,0 a 1,1 0 1,0 -2,0 M 35.71 87 m -0.5, 0 a 0.5,0.5 0 1,0 1,0 a 0.5,0.5 0 1,0 -1,0  M35.71 87 L35.71 87 23.71 87 M29.71 93 L29.71 93 29.71 81" id="h1397587031" class="r"></path><path d="M 184.84 -70.33000000000001 m -1, 0 a 1,1 0 1,0 2,0 a 1,1 0 1,0 -2,0 M 184.84 -70.33000000000001 m -0.5, 0 a 0.5,0.5 0 1,0 1,0 a 0.5,0.5 0 1,0 -1,0  M184.84 -70.33000000000001 L184.84 -70.33000000000001 196.84 -70.33000000000001 M 184.84 -64.33000000000001 m -1, 0 a 1,1 0 1,0 2,0 a 1,1 0 1,0 -2,0 M 184.84 -64.33000000000001 m -0.5, 0 a 0.5,0.5 0 1,0 1,0 a 0.5,0.5 0 1,0 -1,0  M184.84 -64.33000000000001 L184.84 -64.33000000000001 191.84 -70.33000000000001 184.84 -76.33000000000001 M 184.84 -76.33000000000001 m -1, 0 a 1,1 0 1,0 2,0 a 1,1 0 1,0 -2,0 M 184.84 -76.33000000000001 m -0.5, 0 a 0.5,0.5 0 1,0 1,0 a 0.5,0.5 0 1,0 -1,0  M196.84 -70.33000000000001 Q 228.1 -70.33000000000001, 259.35 -4.22 T 321.86 61.9 M 333.86 61.9 m -1, 0 a 1,1 0 1,0 2,0 a 1,1 0 1,0 -2,0 M 333.86 61.9 m -0.5, 0 a 0.5,0.5 0 1,0 1,0 a 0.5,0.5 0 1,0 -1,0  M333.86 61.9 L333.86 61.9 321.86 61.9 M327.86 67.9 L327.86 67.9 327.86 55.9" id="h2286254435" class="r"></path><path d="M 611.43 197.62 m -1, 0 a 1,1 0 1,0 2,0 a 1,1 0 1,0 -2,0 M 611.43 197.62 m -0.5, 0 a 0.5,0.5 0 1,0 1,0 a 0.5,0.5 0 1,0 -1,0  M611.43 197.62 L611.43 197.62 599.43 197.62 M 611.43 203.62 m -1, 0 a 1,1 0 1,0 2,0 a 1,1 0 1,0 -2,0 M 611.43 203.62 m -0.5, 0 a 0.5,0.5 0 1,0 1,0 a 0.5,0.5 0 1,0 -1,0  M611.43 203.62 L611.43 203.62 604.43 197.62 611.43 191.62 M 611.43 191.62 m -1, 0 a 1,1 0 1,0 2,0 a 1,1 0 1,0 -2,0 M 611.43 191.62 m -0.5, 0 a 0.5,0.5 0 1,0 1,0 a 0.5,0.5 0 1,0 -1,0  M599.43 197.62 Q 575.99 197.62, 552.55 129.76 T 505.67 61.9 M 493.67 61.9 m -1, 0 a 1,1 0 1,0 2,0 a 1,1 0 1,0 -2,0 M 493.67 61.9 m -0.5, 0 a 0.5,0.5 0 1,0 1,0 a 0.5,0.5 0 1,0 -1,0  M493.67 61.9 L493.67 61.9 505.67 61.9 M499.67 67.9 L499.67 67.9 499.67 55.9" id="h3177548053" class="r"></path><path d="M 616.71 -80.75999999999999 m -1, 0 a 1,1 0 1,0 2,0 a 1,1 0 1,0 -2,0 M 616.71 -80.75999999999999 m -0.5, 0 a 0.5,0.5 0 1,0 1,0 a 0.5,0.5 0 1,0 -1,0  M616.71 -80.75999999999999 L616.71 -80.75999999999999 604.71 -80.75999999999999 M 616.71 -74.75999999999999 m -1, 0 a 1,1 0 1,0 2,0 a 1,1 0 1,0 -2,0 M 616.71 -74.75999999999999 m -0.5, 0 a 0.5,0.5 0 1,0 1,0 a 0.5,0.5 0 1,0 -1,0  M616.71 -74.75999999999999 L616.71 -74.75999999999999 609.71 -80.75999999999999 616.71 -86.75999999999999 M 616.71 -86.75999999999999 m -1, 0 a 1,1 0 1,0 2,0 a 1,1 0 1,0 -2,0 M 616.71 -86.75999999999999 m -0.5, 0 a 0.5,0.5 0 1,0 1,0 a 0.5,0.5 0 1,0 -1,0  M604.71 -80.75999999999999 Q 579.95 -80.75999999999999, 555.19 -9.43 T 505.67 61.9 M 493.67 61.9 m -1, 0 a 1,1 0 1,0 2,0 a 1,1 0 1,0 -2,0 M 493.67 61.9 m -0.5, 0 a 0.5,0.5 0 1,0 1,0 a 0.5,0.5 0 1,0 -1,0  M493.67 61.9 L493.67 61.9 505.67 61.9 M499.67 67.9 L499.67 67.9 499.67 55.9" id="h3000826536" class="r"></path></g><g class="hrs"></g><g class="ts"><svg width="167.17" height="100" x="35.71" y="30" id="h475896179" class="t"><rect height="40" width="167.17" class="th"></rect><text x="13" y="25" class="tht">departments</text><rect height="60" width="167.17" class="t-bg"></rect><text x="13" y="61" class="tf pk">dept_no<tspan x="154.17" class="ty">VARCHAR</tspan></text><path d="M7,14A2,2 0 0,1 5,12A2,2 0 0,1 7,10A2,2 0 0,1 9,12A2,2 0 0,1 7,14M12.65,10C11.83,7.67 9.61,6 7, 6A6, 6 0 0, 0 1, 12A6, 6 0 0, 0 7, 18C9.61, 18 11.83, 16.33 12.65, 14H17V18H21V14H23V10H12.65Z" class="i pk" transform="translate(76.37898437499999, 48) scale(0.65)"></path><text x="13" y="86" class="tf">dept_name<tspan x="154.17" class="ty">VARCHAR</tspan></text></svg><svg width="147.17" height="150" x="37.43" y="158.29" id="h1090417462" class="t"><rect height="40" width="147.17" class="th"></rect><text x="13" y="25" class="tht">dept_emp</text><rect height="110" width="147.17" class="t-bg"></rect><text x="13" y="61" class="tf fk">emp_no<tspan x="134.17" class="ty">INT</tspan></text><text x="13" y="86" class="tf fk">dept_no<tspan x="134.17" class="ty">VARCHAR</tspan></text><text x="13" y="111" class="tf">from_date<tspan x="134.17" class="ty">DATE</tspan></text><text x="13" y="136" class="tf">to_date<tspan x="134.17" class="ty">DATE</tspan></text></svg><svg width="147.17" height="150" x="37.67" y="-152.33" id="h1676682957" class="t"><rect height="40" width="147.17" class="th"></rect><text x="13" y="25" class="tht">dept_manager</text><rect height="110" width="147.17" class="t-bg"></rect><text x="13" y="61" class="tf fk">dept_no<tspan x="134.17" class="ty">VARCHAR</tspan></text><text x="13" y="86" class="tf fk">emp_no<tspan x="134.17" class="ty">INT</tspan></text><text x="13" y="111" class="tf">from_date<tspan x="134.17" class="ty">DATE</tspan></text><text x="13" y="136" class="tf">to_date<tspan x="134.17" class="ty">DATE</tspan></text></svg><svg width="159.81" height="200" x="333.86" y="4.9" id="h1639608377" class="t"><rect height="40" width="159.81" class="th"></rect><text x="13" y="25" class="tht">employees</text><rect height="160" width="159.81" class="t-bg"></rect><text x="13" y="61" class="tf pk">emp_no<tspan x="146.81" class="ty">INT</tspan></text><path d="M7,14A2,2 0 0,1 5,12A2,2 0 0,1 7,10A2,2 0 0,1 9,12A2,2 0 0,1 7,14M12.65,10C11.83,7.67 9.61,6 7, 6A6, 6 0 0, 0 1, 12A6, 6 0 0, 0 7, 18C9.61, 18 11.83, 16.33 12.65, 14H17V18H21V14H23V10H12.65Z" class="i pk" transform="translate(107.479921875, 48) scale(0.65)"></path><text x="13" y="86" class="tf">birth_date<tspan x="146.81" class="ty">DATE</tspan></text><text x="13" y="111" class="tf">first_name<tspan x="146.81" class="ty">VARCHAR</tspan></text><text x="13" y="136" class="tf">last_name<tspan x="146.81" class="ty">VARCHAR</tspan></text><text x="13" y="161" class="tf">gender<tspan x="146.81" class="ty">VARCHAR</tspan></text><text x="13" y="186" class="tf">hire_date<tspan x="146.81" class="ty">DATE</tspan></text></svg><svg width="131.15" height="150" x="611.43" y="140.62" id="h2472833127" class="t"><rect height="40" width="131.15" class="th"></rect><text x="13" y="25" class="tht">salaries</text><rect height="110" width="131.15" class="t-bg"></rect><text x="13" y="61" class="tf fk">emp_no<tspan x="118.15" class="ty">INT</tspan></text><text x="13" y="86" class="tf">salary<tspan x="118.15" class="ty">INT</tspan></text><text x="13" y="111" class="tf">from_date<tspan x="118.15" class="ty">DATE</tspan></text><text x="13" y="136" class="tf">to_date<tspan x="118.15" class="ty">DATE</tspan></text></svg><svg width="131.15" height="150" x="616.71" y="-137.76" id="h311790747" class="t"><rect height="40" width="131.15" class="th"></rect><text x="13" y="25" class="tht">titles</text><rect height="110" width="131.15" class="t-bg"></rect><text x="13" y="61" class="tf fk">emp_no<tspan x="118.15" class="ty">INT</tspan></text><text x="13" y="86" class="tf">title<tspan x="118.15" class="ty">VARCHAR</tspan></text><text x="13" y="111" class="tf">from_date<tspan x="118.15" class="ty">DATE</tspan></text><text x="13" y="136" class="tf">to_date<tspan x="118.15" class="ty">DATE</tspan></text></svg></g></g><text class="qdbd-link" x="10" y="20">www.quickdatabasediagrams.com</text></svg>